<?xml version="1.0" encoding="UTF-8"?> <svg xmlns="http://www.w3.org/2000/svg" viewBox="0 0 131.32 131.29"> <defs> <style>.cls-1{fill:#fff;}</style> </defs> <title>ITEA FRANCHISE</title> <g id="Layer_2" data-name="Layer 2"> <g id="Layer_1-2" data-name="Layer 1"> <path class="cls-1" d="M10.62,29.9l.9-1.34,4.81,3.22-.9,1.34Z"></path> <path class="cls-1" d="M14.32,27.06l-1.06,1.37-1.11-.86,3.1-4,1.11.86L15.3,25.8l3.46,2.68-1,1.27Z"></path> <path class="cls-1" d="M16,22.64l3.16-3.41,1,.93L18.12,22.4l.64.6,1.89-2,.93.86-1.89,2,.67.62,2.11-2.28,1,.93-3.19,3.44Z"></path> <path class="cls-1" d="M21.7,16.86l1.16-1,5.7,2.74-1.29,1.14-1-.5L24.6,20.7l.37,1-1.26,1.11Zm3.4,1.73-1.57-.81.6,1.66Z"></path> <path class="cls-1" d="M27.73,12.05,31.59,9.5l.77,1.17-2.52,1.66.54.82,2.28-1.51.73,1.11-2.28,1.51L32.25,16l-1.34.88Z"></path> <path class="cls-1" d="M32.67,8.85l2.41-1.29a2.56,2.56,0,0,1,2-.34,1.84,1.84,0,0,1,1.1,1,1.83,1.83,0,0,1-.21,2.13l2.17,1.13-1.63.87-1.85-1-.62.33.82,1.55L35.39,14ZM36.32,10c.48-.26.63-.64.43-1s-.61-.45-1.09-.2l-.93.49.65,1.23Z"></path> <path class="cls-1" d="M40.2,5.1l1.43-.58L46.1,9l-1.59.65-.78-.8-2.06.84v1.11l-1.56.64Zm2.64,2.75L41.62,6.58l0,1.77Z"></path> <path class="cls-1" d="M45,3.27l1.44-.41L49.6,5.15l-.84-2.94,1.53-.43,1.58,5.56-1.35.38L47.27,5.35l.87,3.05-1.53.43Z"></path> <path class="cls-1" d="M52.17,4.31A3,3,0,0,1,54.65.83a2.79,2.79,0,0,1,2.6.79l-1,1.1a1.56,1.56,0,0,0-1.37-.44A1.43,1.43,0,0,0,53.79,4a1.43,1.43,0,0,0,1.62,1.28,1.58,1.58,0,0,0,1.16-.92L57.92,5a3,3,0,0,1-5.75-.72Z"></path> <path class="cls-1" d="M58.38.37,60,.26l.15,2.16,2.05-.14L62,.11,63.63,0,64,5.77l-1.6.11-.15-2.19-2.05.14L60.39,6l-1.6.11Z"></path> <path class="cls-1" d="M65.2,0l1.61,0-.1,5.78-1.61,0Z"></path> <path class="cls-1" d="M67.43,4.91l1-1a3,3,0,0,0,1.82.83c.43,0,.67-.1.69-.36S70.74,4,70,3.76c-1.21-.37-2.13-.78-2-2S68.91,0,70.3.09A3.64,3.64,0,0,1,72.61,1l-.88,1.07a2.9,2.9,0,0,0-1.57-.69c-.39,0-.59.12-.61.35s.17.39,1,.63c1.31.38,2.1.87,2,2s-1.07,1.81-2.47,1.71A4,4,0,0,1,67.43,4.91Z"></path> <path class="cls-1" d="M74.11.53l4.59.75-.22,1.34-3-.49L75.32,3l2.74.45-.2,1.25-2.74-.45-.15.9,3.06.5L77.81,7l-4.63-.75Z"></path> <path class="cls-1" d="M82.5,2.2l1.55.43L82.51,8.2,81,7.77Z"></path> <path class="cls-1" d="M86.34,4.83,84.7,4.25l.47-1.32L90,4.62l-.47,1.32-1.63-.58L86.39,9.49,84.88,9Z"></path> <path class="cls-1" d="M91.09,5.08l4.23,2-.57,1.24L92,7l-.37.8,2.52,1.16-.53,1.15L91.06,8.93l-.38.83,2.82,1.3-.57,1.24-4.26-2Z"></path> <path class="cls-1" d="M98.32,8.67l1.33.78-.84,6.26-1.48-.87.16-1.1-1.92-1.13-.88.68-1.45-.86Zm-.59,3.76L98,10.69l-1.4,1.08Z"></path> <path class="cls-1" d="M104.79,12.91l3.62,2.88-.87,1.1L105.17,15l-.61.77,2.14,1.7-.83,1-2.14-1.7-1.29,1.62-1.25-1Z"></path> <path class="cls-1" d="M109.34,16.61l2,1.89a2.56,2.56,0,0,1,.93,1.75,2,2,0,0,1-2.67,1.8l-.4,2.41-1.33-1.28.37-2.07-.51-.49-1.21,1.26-1.15-1.11Zm0,3.84c.39.38.8.4,1.11.09s.24-.72-.15-1.09l-.76-.73-1,1Z"></path> <path class="cls-1" d="M115.26,22.61l1,1.18-2.85,5.64-1.11-1.31.52-1-1.44-1.7-1.06.35-1.09-1.29ZM113.46,26l.84-1.55-1.68.56Z"></path> <path class="cls-1" d="M118.49,26.62l.84,1.24-1.19,3.69,2.53-1.72.89,1.31-4.79,3.25L116,33.22l1.24-3.83-2.62,1.78-.89-1.31Z"></path> <path class="cls-1" d="M119.74,33.73A3,3,0,0,1,123.83,35a2.8,2.8,0,0,1,.07,2.72l-1.35-.61a1.55,1.55,0,0,0,0-1.44,1.55,1.55,0,0,0-2.72,1.46A1.58,1.58,0,0,0,121,38l-.19,1.47a3,3,0,0,1-1.11-5.69Z"></path> <path class="cls-1" d="M125.43,38.4l.61,1.48-2,.82.78,1.9,2-.82.61,1.48-5.35,2.19L121.46,44l2-.83-.78-1.9-2,.83-.61-1.48Z"></path> <path class="cls-1" d="M127.87,44.71l.49,1.53L122.86,48l-.49-1.53Z"></path> <path class="cls-1" d="M123.94,48.43l1.25.61a3,3,0,0,0-.22,2c.1.42.3.61.56.54s.31-.27.3-1.08c0-1.26.08-2.27,1.25-2.56s2,.38,2.33,1.73a3.63,3.63,0,0,1-.17,2.49l-1.29-.5a2.91,2.91,0,0,0,.16-1.71c-.09-.38-.3-.52-.52-.47s-.32.28-.3,1.1c0,1.36-.18,2.26-1.25,2.53s-2.05-.45-2.39-1.81A4,4,0,0,1,123.94,48.43Z"></path> <path class="cls-1" d="M130.18,53.41l.7,4.6-1.35.21-.46-3-.87.13.42,2.74-1.25.19L127,55.51l-.91.14.47,3.07-1.35.21-.71-4.64Z"></path> <path class="cls-1" d="M131.18,61.9l.07,1.61-5.78.26-.07-1.61Z"></path> <path class="cls-1" d="M129.87,66.36l0-1.73,1.4,0-.12,5.07-1.4,0,0-1.73-4.38-.1,0-1.6Z"></path> <path class="cls-1" d="M131.1,71l-.53,4.62-1.35-.16.35-3-.87-.1L128.38,75l-1.26-.15.32-2.76-.91-.11-.36,3.09L124.82,75l.54-4.66Z"></path> <path class="cls-1" d="M130,79l-.33,1.51-6.22,1.16.37-1.68,1.1-.19.48-2.18-.92-.62.36-1.65Zm-3.76.61,1.74-.28-1.47-1Z"></path> <path class="cls-1" d="M128,86.4l-1.61,4.34L125,90.26l1-2.84-.92-.34-.95,2.57L123,89.18l.95-2.57L122,85.9l.56-1.5Z"></path> <path class="cls-1" d="M125.85,91.91l-1.19,2.46a2.56,2.56,0,0,1-1.37,1.43,2,2,0,0,1-2.54-2l-2.41.37.8-1.66,2.08-.29.3-.63-1.58-.76.7-1.44Zm-3.65,1.19c-.24.49-.14.89.26,1.08s.76,0,1-.48l.46-.94-1.25-.6Z"></path> <path class="cls-1" d="M122,99.39l-.81,1.32-6.25-1,.9-1.46,1.1.18,1.17-1.9-.66-.89.88-1.43Zm-3.75-.66L120,99l-1.06-1.42Z"></path> <path class="cls-1" d="M119.16,103.72l-.92,1.18h-3.87l2.41,1.88-1,1.25-4.56-3.55.86-1.11h4l-2.5-1.95,1-1.25Z"></path> <path class="cls-1" d="M112.81,107.1a3,3,0,0,1,.06,4.28,2.8,2.8,0,0,1-2.57.91l.16-1.48a1.56,1.56,0,0,0,1.37-.46,1.56,1.56,0,0,0-2.23-2.14,1.58,1.58,0,0,0-.4,1.43l-1.46.28a3,3,0,0,1,5.07-2.83Z"></path> <path class="cls-1" d="M110.15,113.94l-1.22,1-1.4-1.65L106,114.67l1.4,1.65-1.22,1-3.75-4.4,1.22-1,1.42,1.67,1.57-1.33-1.42-1.67,1.22-1Z"></path> <path class="cls-1" d="M104.9,118.24l-1.3.95-3.41-4.68,1.3-.95Z"></path> <path class="cls-1" d="M100.15,115.65,100,117a3,3,0,0,0-2,.41c-.36.23-.48.48-.34.7s.36.21,1.12,0c1.19-.42,2.18-.63,2.82.39a2,2,0,0,1-.91,2.76,3.64,3.64,0,0,1-2.42.62l.08-1.38a2.9,2.9,0,0,0,1.67-.38c.33-.21.4-.45.28-.64s-.37-.22-1.14.06c-1.28.46-2.21.54-2.79-.39s-.21-2.09,1-2.84A4,4,0,0,1,100.15,115.65Z"></path> <path class="cls-1" d="M97.36,123.15l-4.15,2.1L92.59,124l2.73-1.39-.4-.78-2.48,1.26L91.88,122l2.48-1.26-.42-.82-2.77,1.41-.62-1.22L94.74,118Z"></path> <path class="cls-1" d="M89.61,126.74l-1.5.57-2-5.4,1.51-.57Z"></path> <path class="cls-1" d="M85,126.9l1.66-.5.4,1.34-4.85,1.46-.41-1.34,1.66-.5-1.26-4.19,1.53-.46Z"></path> <path class="cls-1" d="M81,129.5l-4.56.93-.27-1.34,3-.61-.17-.86-2.72.55L76,126.93l2.72-.55-.18-.9-3,.62-.27-1.34,4.6-.94Z"></path> <path class="cls-1" d="M73,130.9l-1.54.15-3-5.55,1.71-.17.52,1,2.22-.22L73.2,125l1.68-.17Zm-1.75-3.39.81,1.57.49-1.7Z"></path> <path class="cls-1" d="M65.32,131.29l-4.62-.17.05-1.4,3,.11,0-1-2.73-.1,0-1.33,2.73.1.08-2.06,1.6.06Z"></path> <path class="cls-1" d="M59.44,131l-2.71-.36a2.56,2.56,0,0,1-1.79-.86,2,2,0,0,1,1.08-3l-1.1-2.18,1.84.24.93,1.89.7.09.23-1.74,1.59.21Zm-2.27-3.1c-.54-.07-.89.15-.94.58s.24.72.77.79l1,.14.18-1.38Z"></path> <path class="cls-1" d="M51.11,129.69l-1.5-.36-1-6.24,1.67.4.17,1.1,2.17.52.64-.91,1.64.39Zm-.54-3.78.24,1.75,1-1.45Z"></path> <path class="cls-1" d="M46.13,128.35l-1.41-.5-1.21-3.68-1,2.88L41,126.52l1.94-5.45,1.32.47,1.26,3.82,1.07-3,1.49.53Z"></path> <path class="cls-1" d="M40.94,123.37a3,3,0,0,1-4.05,1.39,2.8,2.8,0,0,1-1.66-2.16l1.45-.31a1.56,1.56,0,0,0,.86,1.16,1.56,1.56,0,0,0,1.34-2.79,1.58,1.58,0,0,0-1.48.07l-.71-1.3a3,3,0,0,1,4.26,3.94Z"></path> <path class="cls-1" d="M33.58,122.94l-1.36-.84,1.14-1.84-1.75-1.08L30.46,121l-1.36-.84,3-4.92,1.36.84L32.34,118l1.75,1.08,1.15-1.87,1.36.84Z"></path> <path class="cls-1" d="M27.89,119.3l-1.31-.94L30,113.67l1.31.94Z"></path> <path class="cls-1" d="M28.86,114l-1.37.25a3,3,0,0,0-1-1.73c-.33-.27-.6-.31-.77-.11s-.09.41.4,1c.77,1,1.27,1.88.5,2.8a2,2,0,0,1-2.9,0,3.64,3.64,0,0,1-1.34-2.11l1.34-.36a2.9,2.9,0,0,0,.88,1.47c.3.25.55.24.69.07s.09-.42-.41-1.07c-.84-1.07-1.2-1.93-.5-2.77s1.92-.85,3,0A4,4,0,0,1,28.86,114Z"></path> <path class="cls-1" d="M20.89,113.65l-3.29-3.28,1-1,2.17,2.16.62-.62-2-2,.89-.89,2,2,.65-.65-2.2-2.19,1-1L25,109.56Z"></path> <path class="cls-1" d="M15,107.4l-1-1.26,4.51-3.63,1,1.26Z"></path> <path class="cls-1" d="M13.45,103l1,1.42-1.15.8-2.9-4.16,1.15-.8,1,1.42,3.59-2.51.92,1.31Z"></path> <path class="cls-1" d="M9.75,100.05l-2.3-4,1.18-.67L10.15,98l.76-.43L9.53,95.16l1.1-.63L12,96.94l.8-.45-1.54-2.7,1.18-.67,2.32,4.07Z"></path> <path class="cls-1" d="M5.93,92.93,5.3,91.52l4.33-4.61.7,1.57-.77.8.9,2,1.11,0,.68,1.54ZM8.6,90.21,7.36,91.46l1.77-.07Z"></path> <path class="cls-1" d="M3.14,85.72,1.88,81.27l1.35-.38.83,2.91L5,83.53,4.25,80.9l1.28-.36.75,2.63,2-.56.44,1.54Z"></path> <path class="cls-1" d="M1.6,80.07l-.5-2.69a2.56,2.56,0,0,1,.26-2,1.84,1.84,0,0,1,1.25-.75,1.83,1.83,0,0,1,2,.84l1.73-1.72.34,1.82L5.14,77.07l.13.69L7,77.44,7.28,79Zm2.24-3.12c-.1-.54-.42-.8-.85-.72s-.61.45-.52,1l.19,1L4,78Z"></path> <path class="cls-1" d="M.28,71.73.16,70.19l5.61-2.92L5.91,69l-1,.5.18,2.22L6.15,72l.13,1.68ZM3.7,70.05l-1.59.77,1.69.52Z"></path> <path class="cls-1" d="M0,66.6l0-1.49,3.12-2.3L.1,62.73l0-1.58,5.78.15,0,1.4L2.65,65.08l3.17.08,0,1.58Z"></path> <path class="cls-1" d="M3.12,60.11A3,3,0,0,1,.53,56.7a2.8,2.8,0,0,1,1.53-2.25l.75,1.28A1.56,1.56,0,0,0,2,56.9a1.44,1.44,0,0,0,1.35,1.57A1.43,1.43,0,0,0,5,57.3a1.58,1.58,0,0,0-.53-1.39l1-1.09a2.92,2.92,0,0,1,1,2.71A2.94,2.94,0,0,1,3.12,60.11Z"></path> <path class="cls-1" d="M1.21,53l.37-1.56,2.11.5.47-2-2.11-.5.37-1.56L8.05,49.2l-.37,1.56-2.14-.51-.48,2,2.14.51-.37,1.56Z"></path> <path class="cls-1" d="M2.89,46.43l.49-1.54L8.9,46.66,8.41,48.2Z"></path> <path class="cls-1" d="M8.26,45.71,7.6,44.49A3,3,0,0,0,8.94,43c.16-.4.11-.67-.14-.77s-.42,0-.87.7c-.72,1-1.39,1.79-2.51,1.35a2,2,0,0,1-.89-2.76,3.64,3.64,0,0,1,1.59-1.93l.76,1.16A2.9,2.9,0,0,0,5.74,42c-.14.36-.06.6.15.68s.43,0,.89-.72c.76-1.13,1.46-1.74,2.49-1.33s1.4,1.56.89,2.87A4,4,0,0,1,8.26,45.71Z"></path> <path class="cls-1" d="M6.08,38l2.1-4.15,1.22.62L8,37.23l.78.4,1.26-2.48,1.13.57L9.92,38.19l.82.42,1.41-2.77,1.22.62-2.12,4.19Z"></path> </g> </g> </svg> 